<svg width="65" height="65" viewBox="0 0 65 65" fill="none" xmlns="http://www.w3.org/2000/svg">
<path d="M60.0806 32.0557L33.9346 5.92871C33.7463 5.74009 33.5227 5.59044 33.2765 5.48833C33.0304 5.38623 32.7665 5.33367 32.5 5.33367C32.2335 5.33367 31.9696 5.38623 31.7235 5.48833C31.4773 5.59044 31.2537 5.74009 31.0654 5.92871L4.91943 32.0557C4.15771 32.8174 3.72607 33.8521 3.72607 34.9312C3.72607 37.1719 5.54785 38.9937 7.78857 38.9937H10.5435V57.6367C10.5435 58.7603 11.4512 59.668 12.5747 59.668H28.4375V45.4492H35.5469V59.668H52.4253C53.5488 59.668 54.4565 58.7603 54.4565 57.6367V38.9937H57.2114C58.2905 38.9937 59.3252 38.5684 60.0869 37.8003C61.6675 36.2134 61.6675 33.6426 60.0806 32.0557V32.0557Z" fill="#545454"/>
</svg>
