<svg width="65" height="65" viewBox="0 0 65 65" fill="none" xmlns="http://www.w3.org/2000/svg">
<path d="M60.0806 32.0557L35.5532 7.54102L33.9092 5.89698C33.5346 5.52486 33.028 5.31601 32.5 5.31601C31.972 5.31601 31.4654 5.52486 31.0908 5.89698L4.91942 32.0557C4.53559 32.438 4.23223 32.8934 4.02727 33.3949C3.82231 33.8964 3.71989 34.4339 3.72606 34.9756C3.75145 37.21 5.61132 38.9937 7.84569 38.9937H10.5434V59.668H54.4565V38.9937H57.2114C58.2969 38.9937 59.3188 38.5684 60.0869 37.8003C60.4651 37.4233 60.7647 36.9751 60.9685 36.4815C61.1723 35.9879 61.2761 35.4588 61.2739 34.9248C61.2739 33.8457 60.8486 32.8237 60.0806 32.0557V32.0557ZM36.0547 55.0977H28.9453V42.1484H36.0547V55.0977ZM49.8862 34.4233V55.0977H40.1172V40.625C40.1172 39.2222 38.9809 38.0859 37.5781 38.0859H27.4219C26.019 38.0859 24.8828 39.2222 24.8828 40.625V55.0977H15.1138V34.4233H9.02001L32.5063 10.9561L33.9726 12.4224L55.9863 34.4233H49.8862Z" fill="#545454"/>
</svg>
