<svg width="65" height="65" viewBox="0 0 65 65" fill="none" xmlns="http://www.w3.org/2000/svg">
<path d="M9.28571 6.96429H13.9054C16.3521 6.96429 18.3579 8.85857 18.5343 11.2589L18.5482 11.6071V53.3929C18.5474 54.564 18.1043 55.6916 17.3075 56.55C16.5107 57.4083 15.4191 57.934 14.2512 58.0218L13.903 58.0357H9.28571C8.11493 58.035 6.98762 57.5921 6.12934 56.7958C5.27106 55.9995 4.74513 54.9085 4.65678 53.7411L4.64285 53.3929V11.6071C4.64285 9.16036 6.53714 7.15464 8.9375 6.97589L9.28571 6.96429H13.9054H9.28571ZM25.5241 6.96429H30.1554C32.5998 6.96429 34.6079 8.85857 34.7843 11.2589L34.7982 11.6071V53.3929C34.7974 54.564 34.3543 55.6916 33.5575 56.55C32.7607 57.4083 31.6691 57.934 30.5012 58.0218L30.153 58.0357H25.5241C24.3528 58.0361 23.2246 57.5937 22.3657 56.7972C21.5068 56.0008 20.9807 54.9091 20.8929 53.7411L20.8812 53.3929V11.6071C20.8809 10.4358 21.3233 9.30761 22.1197 8.44873C22.9162 7.58984 24.0078 7.06374 25.1759 6.97589L25.5241 6.96429H30.1554H25.5241V6.96429ZM46.7304 11.6675C48.6896 11.6675 50.4818 12.9164 51.1248 14.8246L51.2316 15.1891L60.1923 51.1318C60.4766 52.2683 60.3206 53.4703 59.7557 54.4967C59.1909 55.5231 58.2589 56.2981 57.1466 56.6661L56.8123 56.7612L52.2554 57.8987C51.1244 58.1793 49.9293 58.0249 48.9069 57.4659C47.8845 56.907 47.1093 55.9844 46.735 54.8809L46.6282 54.5141L37.6675 18.5714C37.384 17.4349 37.5406 16.2332 38.1059 15.2073C38.6712 14.1814 39.6033 13.407 40.7155 13.0395L41.0475 12.942L45.6045 11.8068C45.9805 11.7139 46.3589 11.6675 46.7304 11.6675V11.6675ZM13.9054 10.4464H9.28571C9.01429 10.4472 8.75166 10.5428 8.54314 10.7165C8.33463 10.8903 8.19331 11.1314 8.14357 11.3982L8.125 11.6071V53.3929C8.125 53.9593 8.53589 54.4375 9.07678 54.535L9.28571 54.5536H13.9054C14.4741 54.5536 14.95 54.1404 15.0475 53.6018L15.0661 53.3929V11.6071C15.0657 11.3356 14.9703 11.0727 14.7965 10.8641C14.6227 10.6555 14.3813 10.5143 14.1143 10.465L13.9054 10.4464ZM30.1554 10.4464H25.5241C25.2526 10.4468 24.9897 10.5422 24.7811 10.716C24.5725 10.8898 24.4313 11.1312 24.382 11.3982L24.3634 11.6071V53.3929C24.3634 53.9593 24.7743 54.4375 25.3152 54.535L25.5241 54.5536H30.1554C30.7241 54.5536 31.2 54.1404 31.2975 53.6018L31.3161 53.3929V11.6071C31.3157 11.3356 31.2203 11.0727 31.0465 10.8641C30.8727 10.6555 30.6313 10.5143 30.3643 10.465L30.1554 10.4464V10.4464ZM46.7304 15.1496L46.5887 15.1589L46.4448 15.1845L41.8902 16.322C41.6266 16.3877 41.3944 16.5438 41.234 16.7631C41.0737 16.9824 40.9954 17.251 41.0127 17.5221L41.0452 17.7264L50.0059 53.6714C50.1568 54.275 50.6954 54.5536 51.1295 54.5536L51.2734 54.5466L51.4127 54.5164L55.9696 53.3813C56.2328 53.3156 56.4647 53.1598 56.625 52.941C56.7853 52.7222 56.8639 52.4541 56.8471 52.1834L56.8146 51.9745L47.8539 16.0295C47.7921 15.7782 47.6478 15.555 47.4441 15.3955C47.2404 15.236 46.9891 15.1494 46.7304 15.1496V15.1496Z" fill="#545454"/>
</svg>
