<svg width="65" height="65" viewBox="0 0 65 65" fill="none" xmlns="http://www.w3.org/2000/svg">
<path d="M13.9054 6.96429C15.1367 6.96429 16.3176 7.45344 17.1883 8.32415C18.0591 9.19485 18.5482 10.3758 18.5482 11.6071V53.3929C18.5482 54.6242 18.0591 55.8051 17.1883 56.6759C16.3176 57.5466 15.1367 58.0357 13.9054 58.0357H9.28571C8.05435 58.0357 6.87342 57.5466 6.00271 56.6759C5.13201 55.8051 4.64285 54.6242 4.64285 53.3929V11.6071C4.64285 10.3758 5.13201 9.19485 6.00271 8.32415C6.87342 7.45344 8.05435 6.96429 9.28571 6.96429H13.9054ZM30.1554 6.96429C31.3867 6.96429 32.5676 7.45344 33.4383 8.32415C34.3091 9.19485 34.7982 10.3758 34.7982 11.6071V53.3929C34.7982 54.6242 34.3091 55.8051 33.4383 56.6759C32.5676 57.5466 31.3867 58.0357 30.1554 58.0357H25.5241C24.2927 58.0357 23.1118 57.5466 22.2411 56.6759C21.3704 55.8051 20.8812 54.6242 20.8812 53.3929V11.6071C20.8812 10.3758 21.3704 9.19485 22.2411 8.32415C23.1118 7.45344 24.2927 6.96429 25.5241 6.96429H30.1554V6.96429ZM51.2339 15.1891L60.1946 51.1318C60.4916 52.3268 60.3022 53.5908 59.6681 54.6462C59.0339 55.7017 58.0068 56.4624 56.8123 56.7613L52.2554 57.8988C51.6636 58.0461 51.0487 58.0754 50.4456 57.985C49.8426 57.8946 49.2632 57.6863 48.7407 57.372C48.2182 57.0577 47.7626 56.6435 47.4002 56.1532C47.0377 55.6628 46.7754 55.1059 46.6282 54.5141L37.6675 18.5714C37.5198 17.9799 37.49 17.365 37.5799 16.7619C37.6698 16.1588 37.8777 15.5794 38.1915 15.0566C38.5054 14.5339 38.9192 14.0781 39.4092 13.7152C39.8992 13.3524 40.4559 13.0896 41.0475 12.942L45.6045 11.8068C46.1962 11.6591 46.8112 11.6294 47.4144 11.7195C48.0176 11.8096 48.5971 12.0176 49.1199 12.3317C49.6427 12.6458 50.0985 13.0598 50.4612 13.5501C50.8239 14.0404 51.0865 14.5973 51.2339 15.1891V15.1891Z" fill="#545454"/>
</svg>
