<svg width="65" height="65" viewBox="0 0 65 65" fill="none" xmlns="http://www.w3.org/2000/svg">
<path d="M52.8125 20.3125H12.1875C11.1104 20.3136 10.0777 20.7419 9.31607 21.5036C8.55443 22.2652 8.12608 23.2979 8.125 24.375V52.8125C8.12608 53.8896 8.55443 54.9223 9.31607 55.6839C10.0777 56.4456 11.1104 56.8739 12.1875 56.875H52.8125C53.8896 56.8739 54.9223 56.4456 55.6839 55.6839C56.4456 54.9223 56.8739 53.8896 56.875 52.8125V24.375C56.8739 23.2979 56.4456 22.2652 55.6839 21.5036C54.9223 20.7419 53.8896 20.3136 52.8125 20.3125V20.3125ZM26.4062 46.7188V30.4688L40.625 38.5938L26.4062 46.7188Z" fill="#545454"/>
<path d="M12.1875 12.1875H52.8125V16.25H12.1875V12.1875Z" fill="#545454"/>
<path d="M16.25 4.0625H48.75V8.125H16.25V4.0625Z" fill="#545454"/>
</svg>
