<svg width="65" height="65" viewBox="0 0 65 65" fill="none" xmlns="http://www.w3.org/2000/svg">
<path d="M26.4062 30.4688V46.7188L40.625 38.5938L26.4062 30.4688Z" fill="#545454"/>
<path d="M52.8125 56.875H12.1875C11.1104 56.8739 10.0777 56.4456 9.31607 55.6839C8.55443 54.9223 8.12608 53.8896 8.125 52.8125V24.375C8.12608 23.2979 8.55443 22.2652 9.31607 21.5036C10.0777 20.7419 11.1104 20.3136 12.1875 20.3125H52.8125C53.8896 20.3136 54.9223 20.7419 55.6839 21.5036C56.4456 22.2652 56.8739 23.2979 56.875 24.375V52.8125C56.8739 53.8896 56.4456 54.9223 55.6839 55.6839C54.9223 56.4456 53.8896 56.8739 52.8125 56.875ZM12.1875 24.375V52.8125H52.8125V24.375H12.1875Z" fill="#545454"/>
<path d="M12.1875 12.1875H52.8125V16.25H12.1875V12.1875Z" fill="#545454"/>
<path d="M16.25 4.0625H48.75V8.125H16.25V4.0625Z" fill="#545454"/>
</svg>
